<?xml version="1.0" standalone="no"?>
<!DOCTYPE svg PUBLIC "-//W3C//DTD SVG 20010904//EN"
 "http://www.w3.org/TR/2001/REC-SVG-20010904/DTD/svg10.dtd">
<svg version="1.0" xmlns="http://www.w3.org/2000/svg"
 width="380.000000pt" height="380.000000pt" viewBox="0 0 380.000000 380.000000"
 preserveAspectRatio="xMidYMid meet">
<metadata>
Created by potrace 1.14, written by Peter Selinger 2001-2017
</metadata>
<g transform="translate(0.000000,380.000000) scale(0.100000,-0.100000)"
fill="#000000" stroke="none">
<path d="M1738 3795 c-1 -1 -32 -6 -68 -9 -79 -8 -258 -45 -282 -57 -10 -6
-18 -8 -18 -5 0 2 -37 -9 -82 -26 -46 -16 -92 -32 -103 -36 -34 -10 -259 -126
-305 -158 -25 -17 -61 -42 -81 -55 -224 -155 -467 -435 -593 -687 -74 -147
-149 -361 -162 -460 -2 -19 -7 -38 -10 -43 -3 -5 -11 -57 -19 -116 -13 -102
-14 -422 -1 -483 2 -14 7 -41 10 -60 9 -63 34 -175 46 -205 6 -17 11 -32 11
-35 -3 -25 72 -214 129 -325 46 -90 139 -244 160 -265 3 -3 23 -27 44 -55 63
-81 276 -285 369 -352 47 -35 88 -63 91 -63 3 0 24 -13 48 -29 39 -26 207
-110 283 -140 54 -23 235 -78 275 -85 14 -3 48 -9 77 -15 130 -26 431 -35 571
-18 89 11 262 46 284 58 10 5 18 8 18 5 0 -3 37 9 82 26 46 16 92 33 103 36
56 16 357 181 385 212 3 3 34 27 70 55 104 79 200 173 310 301 13 16 57 79 97
139 40 61 78 116 83 122 6 7 11 15 11 18 0 2 22 51 48 107 82 175 120 298 158
513 17 97 24 400 11 516 -13 114 -63 330 -95 409 -4 8 -7 17 -8 20 -12 49
-126 294 -144 310 -4 3 -12 16 -19 30 -56 109 -237 321 -380 446 -81 71 -253
194 -271 194 -5 0 -11 4 -13 9 -4 11 -239 124 -293 141 -22 7 -49 17 -60 22
-47 21 -246 67 -359 83 -44 7 -402 16 -408 10z"/>
</g>
</svg>
